<svg width="52" height="52" viewBox="0 0 52 52" fill="none" xmlns="http://www.w3.org/2000/svg">
<path d="M34.6667 45.5V41.1667C34.6667 38.8681 33.7536 36.6637 32.1283 35.0384C30.5029 33.4131 28.2985 32.5 26 32.5H10.8333C8.53479 32.5 6.33039 33.4131 4.70507 35.0384C3.07976 36.6637 2.16666 38.8681 2.16666 41.1667V45.5" stroke="#2F4D70" stroke-width="2" stroke-linecap="round" stroke-linejoin="round"/>
<path d="M18.4167 23.8333C23.2031 23.8333 27.0833 19.9531 27.0833 15.1667C27.0833 10.3802 23.2031 6.5 18.4167 6.5C13.6302 6.5 9.75 10.3802 9.75 15.1667C9.75 19.9531 13.6302 23.8333 18.4167 23.8333Z" stroke="#2F4D70" stroke-width="2" stroke-linecap="round" stroke-linejoin="round"/>
<path d="M36.8333 23.8333L41.1667 28.1667L49.8333 19.5" stroke="#2F4D70" stroke-width="2" stroke-linecap="round" stroke-linejoin="round"/>
</svg>
