<svg width="52" height="52" viewBox="0 0 52 52" fill="none" xmlns="http://www.w3.org/2000/svg">
<path d="M36.8333 45.5V41.1667C36.8333 38.8681 35.9202 36.6637 34.2949 35.0384C32.6696 33.4131 30.4652 32.5 28.1667 32.5H10.8333C8.53478 32.5 6.33038 33.4131 4.70506 35.0384C3.07975 36.6637 2.16666 38.8681 2.16666 41.1667V45.5" stroke="#2F4D70" stroke-width="2" stroke-linecap="round" stroke-linejoin="round"/>
<path d="M19.5 23.8333C24.2865 23.8333 28.1667 19.9531 28.1667 15.1667C28.1667 10.3802 24.2865 6.5 19.5 6.5C14.7135 6.5 10.8333 10.3802 10.8333 15.1667C10.8333 19.9531 14.7135 23.8333 19.5 23.8333Z" stroke="#2F4D70" stroke-width="2" stroke-linecap="round" stroke-linejoin="round"/>
<path d="M49.8333 45.5V41.1667C49.8319 39.2464 49.1928 37.381 48.0163 35.8633C46.8398 34.3457 45.1926 33.2617 43.3333 32.7817" stroke="#2F4D70" stroke-width="2" stroke-linecap="round" stroke-linejoin="round"/>
<path d="M34.6667 6.78167C36.5309 7.25898 38.1832 8.34318 39.3632 9.86334C40.5432 11.3835 41.1836 13.2531 41.1836 15.1775C41.1836 17.1019 40.5432 18.9715 39.3632 20.4917C38.1832 22.0118 36.5309 23.096 34.6667 23.5733" stroke="#2F4D70" stroke-width="2" stroke-linecap="round" stroke-linejoin="round"/>
</svg>
